:FULLY-SPECIFIED
:FORCE-ALL-JOINTS-BE-3DOF
:DEGREES
747
root 4.06968 16.9684 14.3425 -159.323 -6.55561 193.439
lfemur -29.7549 -1.00324 -13.404
ltibia 41.0657 0 0
lfoot -27.4161 6.47139 0
ltoes 6.382 0 0
rfemur -26.869 -31.9577 8.47791
rtibia 106.389 0 0
rfoot 13.5744 2.85805 0
rtoes 13.7687 0 0
lowerback 1.86818 6.96464 -1.46175
upperback -1.6488 9.22638 -1.24344
thorax -2.76854 4.62049 -0.869696
lowerneck -6.68351 -8.2813 -0.964615
upperneck -1.97217 -11.125 4.70213
head 0.829393 -5.56456 1.28863
lclavicle -3.08437e-14 6.43806e-15 0
lhumerus -56.7693 -5.90139 72.1166
lradius 49.0401 0 0
lwrist 16.7812 0 0
lhand -26.5098 -3.8955 0
lfingers 7.12502 0 0
lthumb 0.0532509 26.0765 0
rclavicle -3.08437e-14 6.43806e-15 0
rhumerus 27.8456 34.9071 -64.4697
rradius 95.5056 0 0
rwrist -2.67744 0 0
rhand -24.3663 -23.076 0
rfingers 7.12502 0 0
rthumb 2.12356 -773.044 0
748
root 3.99261 16.9414 14.4764 -157.272 -3.42046 195.505
lfemur -30.1594 -0.188291 -13.6132
ltibia 41.5032 0 0
lfoot -27.3416 7.06395 0
ltoes 7.03132 0 0
rfemur -26.479 -31.8212 8.98343
rtibia 104.591 0 0
rfoot 12.4215 1.47281 0
rtoes 12.5525 0 0
lowerback 1.83831 6.88737 -1.46815
upperback -1.63492 9.12457 -1.34272
thorax -2.72665 4.57012 -0.958839
lowerneck -6.6336 -8.24473 -0.974521
upperneck -2.00244 -11.0669 4.74567
head 0.813022 -5.53251 1.30845
lclavicle -2.97664e-14 6.8741e-15 0
lhumerus -56.7256 -6.09851 72.8886
lradius 49.7863 0 0
lwrist 16.5755 0 0
lhand -26.2632 -3.99072 0
lfingers 7.12502 0 0
lthumb 0.291415 25.9776 0
rclavicle -2.97664e-14 6.8741e-15 0
rhumerus 25.9005 35.4039 -66.0423
rradius 94.9724 0 0
rwrist -2.34607 0 0
rhand -24.2722 -22.9533 0
rfingers 7.12502 0 0
rthumb 2.21451 -772.92 0
749
root 3.91554 16.9144 14.6102 -155.221 -0.285319 197.571
lfemur -30.5639 0.626659 -13.8223
ltibia 41.9407 0 0
lfoot -27.267 7.65651 0
ltoes 7.68065 0 0
rfemur -26.0891 -31.6848 9.48895
rtibia 102.794 0 0
rfoot 11.2686 0.0875755 0
rtoes 11.3362 0 0
lowerback 1.80845 6.8101 -1.47454
upperback -1.62105 9.02276 -1.44199
thorax -2.68476 4.51976 -1.04798
lowerneck -6.5837 -8.20816 -0.984427
upperneck -2.0327 -11.0089 4.7892
head 0.79665 -5.50046 1.32828
lclavicle -2.86892e-14 7.31014e-15 0
lhumerus -56.6819 -6.29563 73.6605
lradius 50.5326 0 0
lwrist 16.3699 0 0
lhand -26.0166 -4.08595 0
lfingers 7.12502 0 0
lthumb 0.52958 25.8787 0
rclavicle -2.86892e-14 7.31014e-15 0
rhumerus 23.9553 35.9007 -67.6149
rradius 94.4393 0 0
rwrist -2.01471 0 0
rhand -24.178 -22.8306 0
rfingers 7.12502 0 0
rthumb 2.30546 -772.795 0
750
root 3.83847 16.8874 14.7441 -153.169 2.84983 199.638
lfemur -30.9684 1.44161 -14.0314
ltibia 42.3782 0 0
lfoot -27.1925 8.24907 0
ltoes 8.32998 0 0
rfemur -25.6992 -31.5483 9.99447
rtibia 100.997 0 0
rfoot 10.1157 -1.29766 0
rtoes 10.12 0 0
lowerback 1.77859 6.73283 -1.48093
upperback -1.60717 8.92095 -1.54127
thorax -2.64287 4.4694 -1.13712
lowerneck -6.53379 -8.17159 -0.994332
upperneck -2.06296 -10.9509 4.83274
head 0.780278 -5.4684 1.3481
lclavicle -2.76119e-14 7.74618e-15 0
lhumerus -56.6382 -6.49275 74.4324
lradius 51.2788 0 0
lwrist 16.1642 0 0
lhand -25.7699 -4.18117 0
lfingers 7.12502 0 0
lthumb 0.767744 25.7798 0
rclavicle -2.76119e-14 7.74618e-15 0
rhumerus 22.0102 36.3975 -69.1876
rradius 93.9061 0 0
rwrist -1.68335 0 0
rhand -24.0838 -22.7079 0
rfingers 7.12502 0 0
rthumb 2.39641 -772.671 0
751
root 3.7614 16.8605 14.8779 -151.118 5.98497 201.704
lfemur -31.3729 2.25656 -14.2405
ltibia 42.8156 0 0
lfoot -27.1179 8.84162 0
ltoes 8.97931 0 0
rfemur -25.3093 -31.4119 10.5
rtibia 99.1998 0 0
rfoot 8.96273 -2.6829 0
rtoes 8.90375 0 0
lowerback 1.74873 6.65555 -1.48732
upperback -1.5933 8.81915 -1.64054
thorax -2.60098 4.41904 -1.22627
lowerneck -6.48389 -8.13503 -1.00424
upperneck -2.09322 -10.8929 4.87628
head 0.763906 -5.43635 1.36792
lclavicle -2.65346e-14 8.18223e-15 0
lhumerus -56.5946 -6.68988 75.2043
lradius 52.025 0 0
lwrist 15.9586 0 0
lhand -25.5233 -4.27639 0
lfingers 7.12502 0 0
lthumb 1.00591 25.6809 0
rclavicle -2.65346e-14 8.18223e-15 0
rhumerus 20.065 36.8943 -70.7602
rradius 93.3729 0 0
rwrist -1.35199 0 0
rhand -23.9896 -22.5851 0
rfingers 7.12502 0 0
rthumb 2.48736 -772.547 0
752
root 3.68433 16.8335 15.0118 -149.067 9.12012 203.77
lfemur -31.7774 3.07151 -14.4496
ltibia 43.2531 0 0
lfoot -27.0434 9.43418 0
ltoes 9.62863 0 0
rfemur -24.9194 -31.2754 11.0055
rtibia 97.4026 0 0
rfoot 7.8098 -4.06813 0
rtoes 7.68751 0 0
lowerback 1.71886 6.57828 -1.49372
upperback -1.57942 8.71734 -1.73982
thorax -2.55909 4.36868 -1.31541
lowerneck -6.43398 -8.09846 -1.01414
upperneck -2.12349 -10.8348 4.91982
head 0.747534 -5.4043 1.38775
lclavicle -2.54573e-14 8.61827e-15 0
lhumerus -56.5509 -6.887 75.9763
lradius 52.7712 0 0
lwrist 15.7529 0 0
lhand -25.2767 -4.37162 0
lfingers 7.12502 0 0
lthumb 1.24407 25.582 0
rclavicle -2.54573e-14 8.61827e-15 0
rhumerus 18.1199 37.3911 -72.3328
rradius 92.8397 0 0
rwrist -1.02063 0 0
rhand -23.8954 -22.4624 0
rfingers 7.12502 0 0
rthumb 2.57831 -772.423 0
753
root 3.60726 16.8065 15.1456 -147.015 12.2553 205.837
lfemur -32.182 3.88646 -14.6588
ltibia 43.6906 0 0
lfoot -26.9688 10.0267 0
ltoes 10.278 0 0
rfemur -24.5294 -31.1389 11.511
rtibia 95.6054 0 0
rfoot 6.65687 -5.45337 0
rtoes 6.47126 0 0
lowerback 1.689 6.50101 -1.50011
upperback -1.56555 8.61553 -1.83909
thorax -2.51721 4.31831 -1.40455
lowerneck -6.38407 -8.06189 -1.02405
upperneck -2.15375 -10.7768 4.96336
head 0.731163 -5.37224 1.40757
lclavicle -2.438e-14 9.05431e-15 0
lhumerus -56.5072 -7.08412 76.7482
lradius 53.5174 0 0
lwrist 15.5472 0 0
lhand -25.03 -4.46684 0
lfingers 7.12502 0 0
lthumb 1.48224 25.4832 0
rclavicle -2.438e-14 9.05431e-15 0
rhumerus 16.1747 37.8878 -73.9055
rradius 92.3065 0 0
rwrist -0.689265 0 0
rhand -23.8013 -22.3397 0
rfingers 7.12502 0 0
rthumb 2.66927 -772.299 0
754
root 3.53019 16.7796 15.2795 -144.964 15.3904 207.903
lfemur -32.5865 4.70141 -14.8679
ltibia 44.1281 0 0
lfoot -26.8943 10.6193 0
ltoes 10.9273 0 0
rfemur -24.1395 -31.0025 12.0166
rtibia 93.8082 0 0
rfoot 5.50394 -6.83861 0
rtoes 5.25502 0 0
lowerback 1.65914 6.42374 -1.5065
upperback -1.55167 8.51373 -1.93837
thorax -2.47532 4.26795 -1.49369
lowerneck -6.33417 -8.02532 -1.03396
upperneck -2.18401 -10.7188 5.0069
head 0.714791 -5.34019 1.42739
lclavicle -2.33027e-14 9.49036e-15 0
lhumerus -56.4635 -7.28124 77.5201
lradius 54.2636 0 0
lwrist 15.3416 0 0
lhand -24.7834 -4.56206 0
lfingers 7.12502 0 0
lthumb 1.7204 25.3843 0
rclavicle -2.33027e-14 9.49036e-15 0
rhumerus 14.2296 38.3846 -75.4781
rradius 91.7733 0 0
rwrist -0.357903 0 0
rhand -23.7071 -22.2169 0
rfingers 7.12502 0 0
rthumb 2.76022 -772.175 0
755
root 3.45312 16.7526 15.4133 -142.913 18.5256 209.969
lfemur -32.991 5.51636 -15.077
ltibia 44.5656 0 0
lfoot -26.8197 11.2119 0
ltoes 11.5766 0 0
rfemur -23.7496 -30.866 12.5221
rtibia 92.011 0 0
rfoot 4.35101 -8.22384 0
rtoes 4.03878 0 0
lowerback 1.62928 6.34646 -1.51289
upperback -1.5378 8.41192 -2.03764
thorax -2.43343 4.21759 -1.58284
lowerneck -6.28426 -7.98875 -1.04386
upperneck -2.21427 -10.6608 5.05044
head 0.698419 -5.30814 1.44722
lclavicle -2.22254e-14 9.9264e-15 0
lhumerus -56.4199 -7.47836 78.292
lradius 55.0098 0 0
lwrist 15.1359 0 0
lhand -24.5368 -4.65729 0
lfingers 7.12502 0 0
lthumb 1.95857 25.2854 0
rclavicle -2.22254e-14 9.9264e-15 0
rhumerus 12.2844 38.8814 -77.0507
rradius 91.2401 0 0
rwrist -0.0265406 0 0
rhand -23.6129 -22.0942 0
rfingers 7.12502 0 0
rthumb 2.85117 -772.05 0
756
root 3.37605 16.7256 15.5472 -140.861 21.6607 212.036
lfemur -33.3955 6.33131 -15.2861
ltibia 45.0031 0 0
lfoot -26.7452 11.8044 0
ltoes 12.2259 0 0
rfemur -23.3597 -30.7296 13.0276
rtibia 90.2138 0 0
rfoot 3.19808 -9.60908 0
rtoes 2.82254 0 0
lowerback 1.59942 6.26919 -1.51928
upperback -1.52392 8.31011 -2.13692
thorax -2.39154 4.16723 -1.67198
lowerneck -6.23436 -7.95218 -1.05377
upperneck -2.24453 -10.6027 5.09398
head 0.682047 -5.27608 1.46704
lclavicle -2.11482e-14 1.03624e-14 0
lhumerus -56.3762 -7.67548 79.0639
lradius 55.756 0 0
lwrist 14.9303 0 0
lhand -24.2901 -4.75251 0
lfingers 7.12502 0 0
lthumb 2.19673 25.1865 0
rclavicle -2.11482e-14 1.03624e-14 0
rhumerus 10.3393 39.3782 -78.6234
rradius 90.7069 0 0
rwrist 0.304821 0 0
rhand -23.5187 -21.9715 0
rfingers 7.12502 0 0
rthumb 2.94212 -771.926 0
757
root 3.29898 16.6986 15.681 -138.81 24.7958 214.102
lfemur -33.8 7.14626 -15.4952
ltibia 45.4406 0 0
lfoot -26.6707 12.397 0
ltoes 12.8753 0 0
rfemur -22.9698 -30.5931 13.5331
rtibia 88.4166 0 0
rfoot 2.04515 -10.9943 0
rtoes 1.6063 0 0
lowerback 1.56955 6.19192 -1.52568
upperback -1.51005 8.2083 -2.23619
thorax -2.34965 4.11687 -1.76112
lowerneck -6.18445 -7.91561 -1.06367
upperneck -2.2748 -10.5447 5.13751
head 0.665675 -5.24403 1.48687
lclavicle -2.00709e-14 1.07985e-14 0
lhumerus -56.3325 -7.8726 79.8359
lradius 56.5023 0 0
lwrist 14.7246 0 0
lhand -24.0435 -4.84774 0
lfingers 7.12502 0 0
lthumb 2.4349 25.0876 0
rclavicle -2.00709e-14 1.07985e-14 0
rhumerus 8.39416 39.875 -80.196
rradius 90.1738 0 0
rwrist 0.636183 0 0
rhand -23.4245 -21.8488 0
rfingers 7.12502 0 0
rthumb 3.03307 -771.802 0
758
root 3.22191 16.6717 15.8149 -136.759 27.931 216.168
lfemur -34.2045 7.96121 -15.7044
ltibia 45.8781 0 0
lfoot -26.5961 12.9895 0
ltoes 13.5246 0 0
rfemur -22.5798 -30.4566 14.0386
rtibia 86.6194 0 0
rfoot 0.892223 -12.3795 0
rtoes 0.390055 0 0
lowerback 1.53969 6.11465 -1.53207
upperback -1.49617 8.1065 -2.33547
thorax -2.30776 4.0665 -1.85026
lowerneck -6.13454 -7.87904 -1.07358
upperneck -2.30506 -10.4867 5.18105
head 0.649304 -5.21198 1.50669
lclavicle -1.89936e-14 1.12345e-14 0
lhumerus -56.2888 -8.06972 80.6078
lradius 57.2485 0 0
lwrist 14.5189 0 0
lhand -23.7969 -4.94296 0
lfingers 7.12502 0 0
lthumb 2.67306 24.9887 0
rclavicle -1.89936e-14 1.12345e-14 0
rhumerus 6.44901 40.3718 -81.7686
rradius 89.6406 0 0
rwrist 0.967545 0 0
rhand -23.3304 -21.726 0
rfingers 7.12502 0 0
rthumb 3.12402 -771.678 0
759
root 3.14484 16.6447 15.9487 -134.707 31.0661 218.235
lfemur -34.609 8.77616 -15.9135
ltibia 46.3156 0 0
lfoot -26.5216 13.5821 0
ltoes 14.1739 0 0
rfemur -22.1899 -30.3202 14.5442
rtibia 84.8222 0 0
rfoot -0.260706 -13.7648 0
rtoes -0.826187 0 0
lowerback 1.50983 6.03737 -1.53846
upperback -1.4823 8.00469 -2.43474
thorax -2.26587 4.01614 -1.93941
lowerneck -6.08464 -7.84247 -1.08348
upperneck -2.33532 -10.4287 5.22459
head 0.632932 -5.17992 1.52651
lclavicle -1.79163e-14 1.16706e-14 0
lhumerus -56.2452 -8.26684 81.3797
lradius 57.9947 0 0
lwrist 14.3133 0 0
lhand -23.5502 -5.03818 0
lfingers 7.12502 0 0
lthumb 2.91122 24.8898 0
rclavicle -1.79163e-14 1.16706e-14 0
rhumerus 4.50387 40.8686 -83.3413
rradius 89.1074 0 0
rwrist 1.29891 0 0
rhand -23.2362 -21.6033 0
rfingers 7.12502 0 0
rthumb 3.21497 -771.554 0
